<?xml version="1.0" encoding="UTF-8" standalone="no"?>
<!DOCTYPE svg PUBLIC "-//W3C//DTD SVG 1.1//EN"
 "http://www.w3.org/Graphics/SVG/1.1/DTD/svg11.dtd">
<!-- Generated by graphviz version 5.0.0 (20220707.1540)
 -->
<!-- Title: dependencies Pages: 1 -->
<svg width="552pt" height="174pt"
 viewBox="0.00 0.00 552.00 173.80" xmlns="http://www.w3.org/2000/svg" xmlns:xlink="http://www.w3.org/1999/xlink">
<g id="graph0" class="graph" transform="scale(1 1) rotate(0) translate(4 169.8)">
<title>dependencies</title>
<polygon fill="white" stroke="transparent" points="-4,4 -4,-169.8 548,-169.8 548,4 -4,4"/>
<text text-anchor="middle" x="272" y="-8.2" font-family="sans-serif" font-size="14.00">dependencies</text>
<g id="clust1" class="cluster">
<title>cluster_UsersModule</title>
<polygon fill="none" stroke="black" stroke-dasharray="1,5" points="8,-32.8 8,-157.8 536,-157.8 536,-32.8 8,-32.8"/>
</g>
<g id="clust3" class="cluster">
<title>cluster_UsersModule_imports</title>
<polygon fill="none" stroke="black" points="384,-40.8 384,-92.8 528,-92.8 528,-40.8 384,-40.8"/>
</g>
<g id="clust6" class="cluster">
<title>cluster_UsersModule_providers</title>
<polygon fill="none" stroke="black" points="16,-40.8 16,-92.8 376,-92.8 376,-40.8 16,-40.8"/>
</g>
<!-- EncriptationModule -->
<g id="node1" class="node">
<title>EncriptationModule</title>
<polygon fill="#8dd3c7" stroke="black" points="520.25,-84.8 517.25,-88.8 496.25,-88.8 493.25,-84.8 391.75,-84.8 391.75,-48.8 520.25,-48.8 520.25,-84.8"/>
<text text-anchor="middle" x="456" y="-62.6" font-family="Times,serif" font-size="14.00">EncriptationModule</text>
</g>
<!-- UsersModule -->
<g id="node2" class="node">
<title>UsersModule</title>
<polygon fill="#8dd3c7" stroke="black" points="330.94,-149.8 327.94,-153.8 306.94,-153.8 303.94,-149.8 239.06,-149.8 239.06,-113.8 330.94,-113.8 330.94,-149.8"/>
<text text-anchor="middle" x="285" y="-127.6" font-family="Times,serif" font-size="14.00">UsersModule</text>
</g>
<!-- EncriptationModule&#45;&gt;UsersModule -->
<g id="edge1" class="edge">
<title>EncriptationModule&#45;&gt;UsersModule</title>
<path fill="none" stroke="black" d="M456,-84.91C456,-104.14 456,-131.8 456,-131.8 456,-131.8 340.82,-131.8 340.82,-131.8"/>
<polygon fill="black" stroke="black" points="340.82,-128.3 330.82,-131.8 340.82,-135.3 340.82,-128.3"/>
</g>
<!-- CreateUserService -->
<g id="node3" class="node">
<title>CreateUserService</title>
<ellipse fill="#fdb462" stroke="black" cx="285" cy="-66.8" rx="83.35" ry="18"/>
<text text-anchor="middle" x="285" y="-62.6" font-family="Times,serif" font-size="14.00">CreateUserService</text>
</g>
<!-- CreateUserService&#45;&gt;UsersModule -->
<g id="edge2" class="edge">
<title>CreateUserService&#45;&gt;UsersModule</title>
<path fill="none" stroke="black" d="M285,-84.91C285,-84.91 285,-103.79 285,-103.79"/>
<polygon fill="black" stroke="black" points="281.5,-103.79 285,-113.79 288.5,-103.79 281.5,-103.79"/>
</g>
<!-- FindUsersService -->
<g id="node4" class="node">
<title>FindUsersService</title>
<ellipse fill="#fdb462" stroke="black" cx="104" cy="-66.8" rx="79.89" ry="18"/>
<text text-anchor="middle" x="104" y="-62.6" font-family="Times,serif" font-size="14.00">FindUsersService</text>
</g>
<!-- FindUsersService&#45;&gt;UsersModule -->
<g id="edge3" class="edge">
<title>FindUsersService&#45;&gt;UsersModule</title>
<path fill="none" stroke="black" d="M104,-84.91C104,-104.14 104,-131.8 104,-131.8 104,-131.8 228.86,-131.8 228.86,-131.8"/>
<polygon fill="black" stroke="black" points="228.86,-135.3 238.86,-131.8 228.86,-128.3 228.86,-135.3"/>
</g>
</g>
</svg>
