<?xml version="1.0" encoding="UTF-8" standalone="no"?>
<!DOCTYPE svg PUBLIC "-//W3C//DTD SVG 1.1//EN"
 "http://www.w3.org/Graphics/SVG/1.1/DTD/svg11.dtd">
<!-- Generated by graphviz version 5.0.0 (20220707.1540)
 -->
<!-- Title: dependencies Pages: 1 -->
<svg width="955pt" height="174pt"
 viewBox="0.00 0.00 955.00 173.80" xmlns="http://www.w3.org/2000/svg" xmlns:xlink="http://www.w3.org/1999/xlink">
<g id="graph0" class="graph" transform="scale(1 1) rotate(0) translate(4 169.8)">
<title>dependencies</title>
<polygon fill="white" stroke="transparent" points="-4,4 -4,-169.8 951,-169.8 951,4 -4,4"/>
<text text-anchor="middle" x="473.5" y="-8.2" font-family="sans-serif" font-size="14.00">dependencies</text>
<g id="clust1" class="cluster">
<title>cluster_AuthModule</title>
<polygon fill="none" stroke="black" stroke-dasharray="1,5" points="8,-32.8 8,-157.8 939,-157.8 939,-32.8 8,-32.8"/>
</g>
<g id="clust3" class="cluster">
<title>cluster_AuthModule_imports</title>
<polygon fill="none" stroke="black" points="677,-40.8 677,-92.8 931,-92.8 931,-40.8 677,-40.8"/>
</g>
<g id="clust6" class="cluster">
<title>cluster_AuthModule_providers</title>
<polygon fill="none" stroke="black" points="16,-40.8 16,-92.8 669,-92.8 669,-40.8 16,-40.8"/>
</g>
<!-- EncriptationModule -->
<g id="node1" class="node">
<title>EncriptationModule</title>
<polygon fill="#8dd3c7" stroke="black" points="923.25,-84.8 920.25,-88.8 899.25,-88.8 896.25,-84.8 794.75,-84.8 794.75,-48.8 923.25,-48.8 923.25,-84.8"/>
<text text-anchor="middle" x="859" y="-62.6" font-family="Times,serif" font-size="14.00">EncriptationModule</text>
</g>
<!-- AuthModule -->
<g id="node3" class="node">
<title>AuthModule</title>
<polygon fill="#8dd3c7" stroke="black" points="506.55,-149.8 503.55,-153.8 482.55,-153.8 479.55,-149.8 419.45,-149.8 419.45,-113.8 506.55,-113.8 506.55,-149.8"/>
<text text-anchor="middle" x="463" y="-127.6" font-family="Times,serif" font-size="14.00">AuthModule</text>
</g>
<!-- EncriptationModule&#45;&gt;AuthModule -->
<g id="edge1" class="edge">
<title>EncriptationModule&#45;&gt;AuthModule</title>
<path fill="none" stroke="black" d="M859,-85.08C859,-106.12 859,-137.8 859,-137.8 859,-137.8 516.89,-137.8 516.89,-137.8"/>
<polygon fill="black" stroke="black" points="516.89,-134.3 506.89,-137.8 516.89,-141.3 516.89,-134.3"/>
</g>
<!-- UsersModule -->
<g id="node2" class="node">
<title>UsersModule</title>
<polygon fill="#8dd3c7" stroke="black" points="776.94,-84.8 773.94,-88.8 752.94,-88.8 749.94,-84.8 685.06,-84.8 685.06,-48.8 776.94,-48.8 776.94,-84.8"/>
<text text-anchor="middle" x="731" y="-62.6" font-family="Times,serif" font-size="14.00">UsersModule</text>
</g>
<!-- UsersModule&#45;&gt;AuthModule -->
<g id="edge2" class="edge">
<title>UsersModule&#45;&gt;AuthModule</title>
<path fill="none" stroke="black" d="M731,-84.82C731,-102.17 731,-125.8 731,-125.8 731,-125.8 516.66,-125.8 516.66,-125.8"/>
<polygon fill="black" stroke="black" points="516.66,-122.3 506.66,-125.8 516.66,-129.3 516.66,-122.3"/>
</g>
<!-- ChangePasswordService -->
<g id="node4" class="node">
<title>ChangePasswordService</title>
<ellipse fill="#fdb462" stroke="black" cx="554" cy="-66.8" rx="106.52" ry="18"/>
<text text-anchor="middle" x="554" y="-62.6" font-family="Times,serif" font-size="14.00">ChangePasswordService</text>
</g>
<!-- ChangePasswordService&#45;&gt;AuthModule -->
<g id="edge3" class="edge">
<title>ChangePasswordService&#45;&gt;AuthModule</title>
<path fill="none" stroke="black" d="M477.13,-79.33C477.13,-79.33 477.13,-103.65 477.13,-103.65"/>
<polygon fill="black" stroke="black" points="473.63,-103.65 477.13,-113.65 480.63,-103.65 473.63,-103.65"/>
</g>
<!-- JwtStrategy -->
<g id="node5" class="node">
<title>JwtStrategy</title>
<ellipse fill="#fdb462" stroke="black" cx="373" cy="-66.8" rx="56.77" ry="18"/>
<text text-anchor="middle" x="373" y="-62.6" font-family="Times,serif" font-size="14.00">JwtStrategy</text>
</g>
<!-- JwtStrategy&#45;&gt;AuthModule -->
<g id="edge4" class="edge">
<title>JwtStrategy&#45;&gt;AuthModule</title>
<path fill="none" stroke="black" d="M424.43,-74.51C424.43,-74.51 424.43,-103.79 424.43,-103.79"/>
<polygon fill="black" stroke="black" points="420.93,-103.79 424.43,-113.79 427.93,-103.79 420.93,-103.79"/>
</g>
<!-- LocalStrategy -->
<g id="node6" class="node">
<title>LocalStrategy</title>
<ellipse fill="#fdb462" stroke="black" cx="233" cy="-66.8" rx="65.4" ry="18"/>
<text text-anchor="middle" x="233" y="-62.6" font-family="Times,serif" font-size="14.00">LocalStrategy</text>
</g>
<!-- LocalStrategy&#45;&gt;AuthModule -->
<g id="edge5" class="edge">
<title>LocalStrategy&#45;&gt;AuthModule</title>
<path fill="none" stroke="black" d="M233,-84.82C233,-102.17 233,-125.8 233,-125.8 233,-125.8 409.2,-125.8 409.2,-125.8"/>
<polygon fill="black" stroke="black" points="409.2,-129.3 419.2,-125.8 409.2,-122.3 409.2,-129.3"/>
</g>
<!-- LoginService -->
<g id="node7" class="node">
<title>LoginService</title>
<ellipse fill="#fdb462" stroke="black" cx="87" cy="-66.8" rx="63.12" ry="18"/>
<text text-anchor="middle" x="87" y="-62.6" font-family="Times,serif" font-size="14.00">LoginService</text>
</g>
<!-- LoginService&#45;&gt;AuthModule -->
<g id="edge6" class="edge">
<title>LoginService&#45;&gt;AuthModule</title>
<path fill="none" stroke="black" d="M87,-85.08C87,-106.12 87,-137.8 87,-137.8 87,-137.8 409.13,-137.8 409.13,-137.8"/>
<polygon fill="black" stroke="black" points="409.13,-141.3 419.13,-137.8 409.13,-134.3 409.13,-141.3"/>
</g>
</g>
</svg>
