<?xml version="1.0" encoding="UTF-8" standalone="no"?>
<!DOCTYPE svg PUBLIC "-//W3C//DTD SVG 1.1//EN"
 "http://www.w3.org/Graphics/SVG/1.1/DTD/svg11.dtd">
<!-- Generated by graphviz version 5.0.0 (20220707.1540)
 -->
<!-- Title: dependencies Pages: 1 -->
<svg width="400pt" height="174pt"
 viewBox="0.00 0.00 400.00 173.80" xmlns="http://www.w3.org/2000/svg" xmlns:xlink="http://www.w3.org/1999/xlink">
<g id="graph0" class="graph" transform="scale(1 1) rotate(0) translate(4 169.8)">
<title>dependencies</title>
<polygon fill="white" stroke="transparent" points="-4,4 -4,-169.8 396,-169.8 396,4 -4,4"/>
<text text-anchor="middle" x="196" y="-8.2" font-family="sans-serif" font-size="14.00">dependencies</text>
<g id="clust1" class="cluster">
<title>cluster_AppModule</title>
<polygon fill="none" stroke="black" stroke-dasharray="1,5" points="8,-32.8 8,-157.8 384,-157.8 384,-32.8 8,-32.8"/>
</g>
<g id="clust3" class="cluster">
<title>cluster_AppModule_imports</title>
<polygon fill="none" stroke="black" points="16,-40.8 16,-92.8 376,-92.8 376,-40.8 16,-40.8"/>
</g>
<!-- AuthModule -->
<g id="node1" class="node">
<title>AuthModule</title>
<polygon fill="#8dd3c7" stroke="black" points="367.55,-84.8 364.55,-88.8 343.55,-88.8 340.55,-84.8 280.45,-84.8 280.45,-48.8 367.55,-48.8 367.55,-84.8"/>
<text text-anchor="middle" x="324" y="-62.6" font-family="Times,serif" font-size="14.00">AuthModule</text>
</g>
<!-- AppModule -->
<g id="node4" class="node">
<title>AppModule</title>
<polygon fill="#8dd3c7" stroke="black" points="239.66,-149.8 236.66,-153.8 215.66,-153.8 212.66,-149.8 156.34,-149.8 156.34,-113.8 239.66,-113.8 239.66,-149.8"/>
<text text-anchor="middle" x="198" y="-127.6" font-family="Times,serif" font-size="14.00">AppModule</text>
</g>
<!-- AuthModule&#45;&gt;AppModule -->
<g id="edge1" class="edge">
<title>AuthModule&#45;&gt;AppModule</title>
<path fill="none" stroke="black" d="M324,-84.91C324,-104.14 324,-131.8 324,-131.8 324,-131.8 249.96,-131.8 249.96,-131.8"/>
<polygon fill="black" stroke="black" points="249.96,-128.3 239.96,-131.8 249.96,-135.3 249.96,-128.3"/>
</g>
<!-- EncriptationModule -->
<g id="node2" class="node">
<title>EncriptationModule</title>
<polygon fill="#8dd3c7" stroke="black" points="262.25,-84.8 259.25,-88.8 238.25,-88.8 235.25,-84.8 133.75,-84.8 133.75,-48.8 262.25,-48.8 262.25,-84.8"/>
<text text-anchor="middle" x="198" y="-62.6" font-family="Times,serif" font-size="14.00">EncriptationModule</text>
</g>
<!-- EncriptationModule&#45;&gt;AppModule -->
<g id="edge2" class="edge">
<title>EncriptationModule&#45;&gt;AppModule</title>
<path fill="none" stroke="black" d="M198,-84.91C198,-84.91 198,-103.79 198,-103.79"/>
<polygon fill="black" stroke="black" points="194.5,-103.79 198,-113.79 201.5,-103.79 194.5,-103.79"/>
</g>
<!-- UsersModule -->
<g id="node3" class="node">
<title>UsersModule</title>
<polygon fill="#8dd3c7" stroke="black" points="115.94,-84.8 112.94,-88.8 91.94,-88.8 88.94,-84.8 24.06,-84.8 24.06,-48.8 115.94,-48.8 115.94,-84.8"/>
<text text-anchor="middle" x="70" y="-62.6" font-family="Times,serif" font-size="14.00">UsersModule</text>
</g>
<!-- UsersModule&#45;&gt;AppModule -->
<g id="edge3" class="edge">
<title>UsersModule&#45;&gt;AppModule</title>
<path fill="none" stroke="black" d="M70,-84.91C70,-104.14 70,-131.8 70,-131.8 70,-131.8 146.09,-131.8 146.09,-131.8"/>
<polygon fill="black" stroke="black" points="146.09,-135.3 156.09,-131.8 146.09,-128.3 146.09,-135.3"/>
</g>
</g>
</svg>
