<?xml version="1.0" encoding="UTF-8" standalone="no"?>
<!DOCTYPE svg PUBLIC "-//W3C//DTD SVG 1.1//EN"
 "http://www.w3.org/Graphics/SVG/1.1/DTD/svg11.dtd">
<!-- Generated by graphviz version 5.0.0 (20220707.1540)
 -->
<!-- Title: dependencies Pages: 1 -->
<svg width="482pt" height="174pt"
 viewBox="0.00 0.00 482.00 173.80" xmlns="http://www.w3.org/2000/svg" xmlns:xlink="http://www.w3.org/1999/xlink">
<g id="graph0" class="graph" transform="scale(1 1) rotate(0) translate(4 169.8)">
<title>dependencies</title>
<polygon fill="white" stroke="transparent" points="-4,4 -4,-169.8 478,-169.8 478,4 -4,4"/>
<text text-anchor="middle" x="237" y="-8.2" font-family="sans-serif" font-size="14.00">dependencies</text>
<g id="clust1" class="cluster">
<title>cluster_CompaniesModule</title>
<polygon fill="none" stroke="black" stroke-dasharray="1,5" points="8,-32.8 8,-157.8 466,-157.8 466,-32.8 8,-32.8"/>
</g>
<g id="clust6" class="cluster">
<title>cluster_CompaniesModule_providers</title>
<polygon fill="none" stroke="black" points="16,-40.8 16,-92.8 458,-92.8 458,-40.8 16,-40.8"/>
</g>
<!-- CreateCompanyService -->
<g id="node1" class="node">
<title>CreateCompanyService</title>
<ellipse fill="#fdb462" stroke="black" cx="347" cy="-66.8" rx="102.99" ry="18"/>
<text text-anchor="middle" x="347" y="-62.6" font-family="Times,serif" font-size="14.00">CreateCompanyService</text>
</g>
<!-- CompaniesModule -->
<g id="node3" class="node">
<title>CompaniesModule</title>
<polygon fill="#8dd3c7" stroke="black" points="297.05,-149.8 294.05,-153.8 273.05,-153.8 270.05,-149.8 174.95,-149.8 174.95,-113.8 297.05,-113.8 297.05,-149.8"/>
<text text-anchor="middle" x="236" y="-127.6" font-family="Times,serif" font-size="14.00">CompaniesModule</text>
</g>
<!-- CreateCompanyService&#45;&gt;CompaniesModule -->
<g id="edge1" class="edge">
<title>CreateCompanyService&#45;&gt;CompaniesModule</title>
<path fill="none" stroke="black" d="M270.76,-79.03C270.76,-79.03 270.76,-103.48 270.76,-103.48"/>
<polygon fill="black" stroke="black" points="267.26,-103.48 270.76,-113.48 274.26,-103.48 267.26,-103.48"/>
</g>
<!-- FindCompaniesService -->
<g id="node2" class="node">
<title>FindCompaniesService</title>
<ellipse fill="#fdb462" stroke="black" cx="125" cy="-66.8" rx="101.31" ry="18"/>
<text text-anchor="middle" x="125" y="-62.6" font-family="Times,serif" font-size="14.00">FindCompaniesService</text>
</g>
<!-- FindCompaniesService&#45;&gt;CompaniesModule -->
<g id="edge2" class="edge">
<title>FindCompaniesService&#45;&gt;CompaniesModule</title>
<path fill="none" stroke="black" d="M200.44,-79.03C200.44,-79.03 200.44,-103.48 200.44,-103.48"/>
<polygon fill="black" stroke="black" points="196.94,-103.48 200.44,-113.48 203.94,-103.48 196.94,-103.48"/>
</g>
</g>
</svg>
